<svg width="45" height="53" viewBox="0 0 45 53" fill="none" xmlns="http://www.w3.org/2000/svg">
<path d="M19.5 50C19.5 51.6569 20.8431 53 22.5 53C24.1569 53 25.5 51.6569 25.5 50H22.5H19.5ZM24.6213 1.02683C23.4497 -0.144746 21.5503 -0.144746 20.3787 1.02683L1.2868 20.1187C0.115224 21.2903 0.115224 23.1898 1.2868 24.3614C2.45837 25.5329 4.35786 25.5329 5.52944 24.3614L22.5 7.39079L39.4706 24.3614C40.6421 25.5329 42.5416 25.5329 43.7132 24.3614C44.8848 23.1898 44.8848 21.2903 43.7132 20.1187L24.6213 1.02683ZM22.5 50H25.5L25.5 3.14815H22.5H19.5L19.5 50H22.5Z" fill="black"/>
</svg>
